<svg width="1200" height="800" viewBox="0 0 1200 800" fill="none" xmlns="http://www.w3.org/2000/svg">
  <defs>
    <linearGradient id="bg" x1="118" y1="90" x2="1088" y2="742" gradientUnits="userSpaceOnUse">
      <stop stop-color="#111827"/>
      <stop offset="0.5" stop-color="#1E1B4B"/>
      <stop offset="1" stop-color="#0F766E"/>
    </linearGradient>
    <linearGradient id="card" x1="220" y1="200" x2="980" y2="640" gradientUnits="userSpaceOnUse">
      <stop stop-color="#0F172A" stop-opacity="0.92"/>
      <stop offset="1" stop-color="#111827" stop-opacity="0.72"/>
    </linearGradient>
    <linearGradient id="accent" x1="278" y1="190" x2="474" y2="376" gradientUnits="userSpaceOnUse">
      <stop stop-color="#22D3EE"/>
      <stop offset="1" stop-color="#A855F7"/>
    </linearGradient>
    <filter id="blur" x="0" y="0" width="1200" height="800" filterUnits="userSpaceOnUse">
      <feGaussianBlur stdDeviation="48"/>
    </filter>
  </defs>

  <rect width="1200" height="800" rx="40" fill="url(#bg)"/>
  <circle cx="220" cy="160" r="130" fill="#22D3EE" fill-opacity="0.18" filter="url(#blur)"/>
  <circle cx="1020" cy="650" r="180" fill="#A855F7" fill-opacity="0.18" filter="url(#blur)"/>

  <rect x="160" y="120" width="880" height="560" rx="32" fill="rgba(255,255,255,0.05)" stroke="rgba(255,255,255,0.12)"/>
  <rect x="190" y="150" width="820" height="500" rx="26" fill="url(#card)" stroke="rgba(255,255,255,0.08)"/>

  <rect x="220" y="186" width="300" height="32" rx="16" fill="#22D3EE" fill-opacity="0.16"/>
  <text x="236" y="209" fill="#E0F2FE" font-family="Inter, Arial, sans-serif" font-size="18" font-weight="600">Phy6Master Demo</text>
  <text x="570" y="209" fill="#94A3B8" font-family="Inter, Arial, sans-serif" font-size="16">Cart preview</text>

  <rect x="220" y="248" width="520" height="326" rx="24" fill="#0B1220" stroke="rgba(255,255,255,0.08)"/>
  <rect x="250" y="280" width="160" height="160" rx="24" fill="url(#accent)"/>
  <rect x="432" y="286" width="250" height="18" rx="9" fill="#E2E8F0" fill-opacity="0.86"/>
  <rect x="432" y="320" width="210" height="12" rx="6" fill="#94A3B8" fill-opacity="0.7"/>
  <rect x="432" y="346" width="180" height="12" rx="6" fill="#94A3B8" fill-opacity="0.55"/>
  <rect x="432" y="390" width="120" height="42" rx="21" fill="#22D3EE"/>
  <text x="462" y="417" fill="#08111F" font-family="Inter, Arial, sans-serif" font-size="16" font-weight="700">Add to cart</text>
  <rect x="432" y="448" width="90" height="12" rx="6" fill="#A855F7" fill-opacity="0.8"/>
  <rect x="432" y="474" width="180" height="12" rx="6" fill="#94A3B8" fill-opacity="0.45"/>
  <rect x="432" y="500" width="150" height="12" rx="6" fill="#94A3B8" fill-opacity="0.35"/>

  <rect x="768" y="248" width="232" height="326" rx="24" fill="#0B1220" stroke="rgba(255,255,255,0.08)"/>
  <text x="798" y="287" fill="#E2E8F0" font-family="Inter, Arial, sans-serif" font-size="18" font-weight="600">Cart summary</text>
  <rect x="798" y="314" width="172" height="18" rx="9" fill="#94A3B8" fill-opacity="0.55"/>
  <rect x="798" y="348" width="140" height="18" rx="9" fill="#94A3B8" fill-opacity="0.45"/>
  <rect x="798" y="388" width="166" height="54" rx="20" fill="#22D3EE" fill-opacity="0.18"/>
  <text x="824" y="421" fill="#A5F3FC" font-family="Inter, Arial, sans-serif" font-size="15" font-weight="600">Secure checkout</text>
  <rect x="798" y="466" width="172" height="44" rx="22" fill="#A855F7"/>
  <text x="838" y="494" fill="#FFFFFF" font-family="Inter, Arial, sans-serif" font-size="15" font-weight="700">Checkout</text>

  <rect x="220" y="606" width="246" height="34" rx="17" fill="rgba(255,255,255,0.08)"/>
  <text x="240" y="628" fill="#CBD5E1" font-family="Inter, Arial, sans-serif" font-size="14">Browse products</text>
  <rect x="484" y="606" width="180" height="34" rx="17" fill="rgba(255,255,255,0.08)"/>
  <text x="506" y="628" fill="#CBD5E1" font-family="Inter, Arial, sans-serif" font-size="14">Update cart</text>
  <rect x="682" y="606" width="190" height="34" rx="17" fill="rgba(255,255,255,0.08)"/>
  <text x="705" y="628" fill="#CBD5E1" font-family="Inter, Arial, sans-serif" font-size="14">Checkout flow</text>
</svg>